<svg width="7" height="12" viewBox="0 0 7 12" fill="none" xmlns="http://www.w3.org/2000/svg">
<path d="M1.53025 0.469402L6.53025 5.4694C6.60017 5.53908 6.65564 5.62187 6.6935 5.71304C6.73135 5.8042 6.75084 5.90194 6.75084 6.00065C6.75084 6.09936 6.73135 6.1971 6.6935 6.28827C6.65564 6.37943 6.60017 6.46222 6.53025 6.5319L1.53025 11.5319C1.38935 11.6728 1.19825 11.752 0.998996 11.752C0.799739 11.752 0.608642 11.6728 0.467746 11.5319C0.32685 11.391 0.247695 11.1999 0.247695 11.0007C0.247695 10.8014 0.32685 10.6103 0.467746 10.4694L4.93712 6.00003L0.467122 1.53065C0.326225 1.38976 0.24707 1.19866 0.24707 0.999403C0.24707 0.800146 0.326225 0.609049 0.467122 0.468153C0.608018 0.327257 0.799114 0.2481 0.998372 0.2481C1.19763 0.2481 1.38873 0.327257 1.52962 0.468153L1.53025 0.469402Z" fill="black" fill-opacity="0.6"/>
</svg>
